PathFileType	4	(X/Y/Z)	C:\Users\Basilio\Documents\Thesis Gigler\squatting_fais\c3dfiles\075\SLS_back_pre1\markers_experimental.trc
DataRate	CameraRate	NumFrames	NumMarkers	Units	OrigDataRate	OrigDataStartFrame	OrigNumFrames
200.000000	200.000000	4	61	mm	200.000000	1017	1357
Frame#	Time	FHD			LBHD			C7			T10			CLAV			LSHO			LUUPA			LMUPA			LDUPA			LLEP			LMEP			LRAD			LUL			LRFIN			RSHO			RUPA1			RMUPA			RDUPA			RLEP			RMEP			RRAD			RUL			RUFIN			LASI			RASI			USACR			LSACR			RSACR			LTHI1			LTHI2			LTHI3			LTHI4			LLFC			LMFC			LTIB1			LTIB2			LTIB3			LTIB4			LLMAL			LMMAL			LHEE			LMT1			LMT2			LMT5			RTHI			RTHI2			RTHI3			RTHI4			RLFC			RMFC			RTIB1			RTIB2			RTIB3			RTIB4			RLMAL			RMMAL			RHEE			RMT1			RMT2			RMT5			RBHD			
		X1	Y1	Z1	X2	Y2	Z2	X3	Y3	Z3	X4	Y4	Z4	X5	Y5	Z5	X6	Y6	Z6	X7	Y7	Z7	X8	Y8	Z8	X9	Y9	Z9	X10	Y10	Z10	X11	Y11	Z11	X12	Y12	Z12	X13	Y13	Z13	X14	Y14	Z14	X15	Y15	Z15	X16	Y16	Z16	X17	Y17	Z17	X18	Y18	Z18	X19	Y19	Z19	X20	Y20	Z20	X21	Y21	Z21	X22	Y22	Z22	X23	Y23	Z23	X24	Y24	Z24	X25	Y25	Z25	X26	Y26	Z26	X27	Y27	Z27	X28	Y28	Z28	X29	Y29	Z29	X30	Y30	Z30	X31	Y31	Z31	X32	Y32	Z32	X33	Y33	Z33	X34	Y34	Z34	X35	Y35	Z35	X36	Y36	Z36	X37	Y37	Z37	X38	Y38	Z38	X39	Y39	Z39	X40	Y40	Z40	X41	Y41	Z41	X42	Y42	Z42	X43	Y43	Z43	X44	Y44	Z44	X45	Y45	Z45	X46	Y46	Z46	X47	Y47	Z47	X48	Y48	Z48	X49	Y49	Z49	X50	Y50	Z50	X51	Y51	Z51	X52	Y52	Z52	X53	Y53	Z53	X54	Y54	Z54	X55	Y55	Z55	X56	Y56	Z56	X57	Y57	Z57	X58	Y58	Z58	X59	Y59	Z59	X60	Y60	Z60	X61	Y61	Z61	

1018	5.085	-279.0266418457032	1734.841186523438	-789.7488403320315	-406.2749938964845	1596.750732421875	-854.443786621094	-429.0639953613282	1486.629272460938	-798.488220214844	-434.4518127441407	1162.35791015625	-804.2510986328127	-282.7743530273438	1432.210327148438	-797.3279418945315	-314.8145141601563	1464.163940429688	-954.9715576171877	-302.6210937500001	1272.15380859375	-1081.23095703125	-256.5458068847657	1259.39892578125	-1065.622680664063	-272.1212768554688	1212.3046875	-1101.771606445313	-225.6442108154297	1139.319458007813	-1101.892333984375	-287.8353881835938	1104.961059570313	-1040.494384765625	-101.9153518676758	1145.341430664063	-879.7689208984377	-54.52051544189455	1105.3466796875	-923.8345336914065	-34.75155639648438	1153.69677734375	-824.3360595703127	-322.5999450683594	1447.188842773438	-636.8402099609376	-303.3294677734376	1251.077758789063	-523.0429077148439	-258.2063293457032	1237.009765625	-537.8018798828126	-274.9777832031251	1188.252319335938	-505.3069458007814	-236.0282897949219	1126.528442382813	-502.6890258789064	-282.4831237792969	1076.066040039063	-555.0502319335939	-81.4866180419922	1155.058959960938	-727.8119506835939	-56.89981842041017	1097.88720703125	-682.2038574218751	-3.151091814041139	1148.556518554688	-773.5520019531252	-282.1380920410157	994.807800292969	-945.565124511719	-262.5300903320313	994.063171386719	-693.5690307617189	-429.7642822265626	1062.313232421875	-810.1358642578127	-438.1931152343751	1031.473876953125	-837.8303222656252	-433.2513122558595	1031.362060546875	-780.6077270507815	-323.8402099609376	754.8023681640626	-1030.2529296875	-289.2922668457032	677.8189086914064	-1037.256103515625	-243.5872955322266	683.7875366210939	-1019.368347167969	-314.3527526855469	623.2382812500001	-1032.169311523438	-313.9045715332032	515.5227661132814	-1030.4599609375	-271.3590393066407	490.5557861328126	-906.130798339844	-266.6927185058594	388.7964477539064	-1004.673522949219	-330.2871704101563	358.4002075195313	-1054.908813476563	-289.8823852539063	346.3645935058594	-1036.252563476563	-302.6957397460938	265.8163452148438	-1011.783874511719	-391.6808471679689	133.7651519775391	-1036.573608398438	-362.4757080078126	141.1871643066407	-955.1210937500002	-451.0008239746095	104.1635055541992	-996.4625244140627	-249.8913116455079	55.1836280822754	-962.3883056640627	-243.5057830810547	58.25942993164064	-1011.011291503906	-281.6242675781251	44.97307968139649	-1063.248291015625	-327.8158264160157	788.4621582031252	-635.8251953125001	-290.2972717285157	735.2315063476564	-642.3727416992189	-259.1542053222657	741.4441528320314	-653.9523315429689	-319.5524597167969	655.6663208007814	-658.4403686523439	-338.8876953125001	503.409881591797	-698.1845703125001	-305.0070495605469	503.6449279785157	-822.9813232421877	-294.4847717285157	359.5806579589844	-773.6731567382815	-346.3613891601563	279.7570495605469	-720.7955322265626	-310.1343383789063	275.6679992675782	-753.1550903320314	-322.9710693359376	234.1870727539063	-792.6962890625002	-393.3276367187501	114.3906707763672	-765.2824096679689	-366.5578308105469	142.8939666748047	-843.4584960937502	-450.6533203125001	98.99942779541018	-822.982116699219	-246.2511138916016	58.33563613891603	-835.671325683594	-246.3645629882813	54.61133575439455	-793.3989257812502	-284.1721801757813	33.69079971313477	-741.4370117187501	-370.7716979980469	1639.219848632813	-701.7894287109376	
1019	5.09	-278.8414611816407	1734.841552734375	-790.4270019531252	-406.0511169433595	1596.465454101563	-855.1339111328127	-428.7704162597657	1486.609375	-799.2197875976565	-434.1321716308595	1162.271118164063	-804.8842773437502	-282.5052795410157	1432.06982421875	-798.1182861328127	-314.4004516601563	1463.8720703125	-955.9336547851565	-304.3280944824219	1271.468383789063	-1081.996948242188	-258.1825256347657	1258.229370117188	-1066.35009765625	-274.6277770996094	1210.997680664063	-1102.677001953125	-229.0280914306641	1137.664428710938	-1102.741333007813	-291.3259277343751	1103.958740234375	-1041.046997070313	-104.847900390625	1142.332641601563	-880.4409179687502	-57.31827926635744	1101.685546875	-924.213073730469	-37.50477981567384	1150.056518554688	-825.157897949219	-322.1413269042969	1446.977661132813	-637.2791748046876	-304.4651184082032	1250.325073242188	-523.6381225585939	-259.7971801757813	1235.5419921875	-538.5975952148439	-277.1040649414063	1187.052856445313	-506.1760559082032	-239.0406341552735	1124.834106445313	-503.6432189941407	-286.0883789062501	1075.000122070313	-556.2380981445314	-84.14753723144533	1151.927124023438	-728.6242065429689	-60.16098785400392	1094.444213867188	-683.1832885742189	-6.008466243743898	1144.608276367188	-774.4112548828127	-281.8066101074219	994.6647949218752	-946.1839599609377	-261.9282836914063	994.033142089844	-694.1419067382814	-429.3959045410157	1062.26318359375	-810.6596679687502	-437.7713928222657	1031.3984375	-838.3789062500002	-432.8474426269532	1031.253051757813	-781.1063232421877	-325.2277832031251	754.6614990234376	-1030.276733398438	-290.4550476074219	677.3656005859376	-1037.054077148438	-244.9413452148438	683.2292480468751	-1019.449645996094	-315.7595825195313	622.7585449218751	-1031.586181640625	-315.5659179687501	515.0214843750001	-1029.531616210938	-272.7942810058594	490.206268310547	-905.4353027343752	-267.7227783203126	388.2967224121095	-1003.550598144531	-331.6000366210938	357.5190124511719	-1054.126708984375	-291.3700561523438	345.7398376464844	-1035.288940429688	-303.4420471191407	265.3148193359376	-1011.075561523438	-391.7219848632814	133.1688385009766	-1035.77734375	-362.6816406250001	140.2564392089844	-954.4454345703127	-450.9628906250001	103.8122711181641	-995.9077758789065	-249.4033355712891	54.52577590942384	-961.963806152344	-242.909164428711	57.90353775024415	-1010.365295410156	-281.6603393554688	44.95226669311524	-1063.066650390625	-327.1628723144532	788.5169067382815	-636.2156982421876	-289.5788269042969	735.3327026367189	-642.8343505859376	-258.5883178710938	741.4714355468751	-654.3856201171876	-319.0206909179688	655.7481689453126	-658.8454589843751	-338.4510498046876	503.412567138672	-698.3978271484376	-305.5512084960938	503.5625915527345	-823.109558105469	-294.2192077636719	359.5583801269532	-773.9683837890627	-346.1647338867188	279.7770080566407	-720.9299316406251	-309.7908935546876	275.6879882812501	-753.2844238281251	-322.3338623046876	234.1410827636719	-792.5141601562502	-393.2664184570314	114.4112930297852	-765.2939453125001	-365.7838745117188	142.6622924804688	-843.3592529296877	-450.6509704589845	99.01334381103518	-822.9343261718752	-246.1358642578126	58.29597473144533	-835.606384277344	-246.3983306884766	54.60676956176759	-793.419860839844	-284.1833801269532	33.66353988647462	-741.4503784179689	-370.4835510253907	1639.199584960938	-702.4925537109376	
1020	5.095	-278.6683959960938	1734.78515625	-791.034362792969	-405.7359619140626	1596.253784179688	-855.7974243164065	-428.4107360839845	1486.73193359375	-799.890808105469	-433.7313842773439	1162.147338867188	-805.5413818359377	-282.2433166503907	1431.993041992188	-798.8752441406252	-313.9830932617188	1463.557373046875	-956.833679199219	-305.7207946777344	1270.69580078125	-1082.74609375	-260.5264892578126	1257.059692382813	-1067.723999023438	-276.7577514648438	1209.92333984375	-1103.419799804688	-232.1031036376954	1136.041870117188	-1103.347900390625	-294.8736572265626	1103.0859375	-1041.49169921875	-107.827377319336	1139.437377929688	-881.2719726562502	-60.85763168334962	1098.46728515625	-925.2085571289065	-40.22933197021485	1146.579711914063	-826.0115356445315	-321.7447204589844	1446.732055664063	-637.7562255859376	-305.8797912597657	1249.506469726563	-524.4226684570314	-261.2479858398438	1234.348999023438	-539.2813720703126	-279.3895568847657	1185.82861328125	-506.9827270507814	-242.0335540771485	1123.203857421875	-504.5454406738282	-289.6817321777344	1073.911743164063	-557.3510742187501	-86.59370422363283	1148.863159179688	-729.2970581054689	-63.62294387817384	1090.976806640625	-684.0812377929689	-8.746452331542971	1140.684814453125	-775.241882324219	-281.4385681152344	994.4027099609377	-946.8504638671877	-261.3296813964844	994.1202392578127	-694.7133178710939	-429.117645263672	1062.243286132813	-811.1419067382815	-437.3493041992189	1031.311889648438	-838.9177246093752	-432.4877319335939	1031.25537109375	-781.5882568359377	-325.2567749023438	754.2590332031251	-1030.174072265625	-292.3114013671876	677.1391601562501	-1036.846435546875	-245.9634094238282	682.6100463867189	-1019.302490234375	-317.1669311523438	622.5227050781251	-1030.929321289063	-317.4531250000001	514.5451660156251	-1028.43603515625	-274.4212646484376	489.9547729492189	-904.760192871094	-269.0497131347657	388.0937500000001	-1002.724548339844	-332.7016601562501	356.9389343261719	-1053.34375	-292.2990417480469	345.4672851562501	-1034.478149414063	-304.1534729003907	264.8684997558594	-1010.186584472656	-391.5245056152345	132.7960357666016	-1035.065551757813	-362.7022094726563	139.383544921875	-953.7379150390627	-450.4685363769532	103.288200378418	-995.526794433594	-249.3021697998047	54.04386138916017	-961.7564697265627	-242.8050231933594	57.64483642578126	-1010.2685546875	-281.5753173828126	45.00042343139649	-1062.970703125	-326.5432128906251	788.622741699219	-636.6820678710939	-289.0146179199219	735.3312377929689	-643.5719604492189	-258.0044250488282	741.5961914062501	-654.9705200195314	-318.5101318359376	655.7357788085939	-659.0743408203126	-338.0953369140626	503.5409240722657	-698.6885986328126	-302.8796081542969	504.0868225097657	-823.8024902343752	-294.0108337402344	359.6031494140626	-774.2520141601565	-345.9738769531251	279.8573913574219	-721.0689086914064	-309.5391540527344	275.6916809082032	-753.4518432617189	-322.3025207519532	234.1674194335938	-792.679626464844	-393.2368469238282	114.4617156982422	-765.3375244140626	-366.5447387695313	142.9347381591797	-843.549011230469	-450.6390991210939	99.07550048828128	-822.9766845703127	-246.2502899169922	58.3469581604004	-835.6685180664065	-246.4386138916016	54.63538742065431	-793.4132080078127	-284.1058654785157	33.73542404174805	-741.4637451171876	-370.2843017578126	1639.148315429688	-703.2080688476564	
1021	5.100000000000001	-278.5141601562501	1734.847534179688	-791.7276000976565	-405.4618530273439	1596.25634765625	-856.5078125000002	-428.1013183593751	1486.806030273438	-800.6156005859377	-433.4729003906251	1162.015014648438	-806.1245727539065	-281.9382629394532	1431.961791992188	-799.5468750000002	-314.1625976562501	1463.358276367188	-958.021423339844	-307.2524719238282	1269.924682617188	-1083.554565429688	-261.5377807617188	1255.8828125	-1068.268798828125	-279.1193542480469	1208.884521484375	-1104.052978515625	-234.9289093017579	1134.520385742188	-1103.986083984375	-298.1095275878907	1102.581665039063	-1042.162475585938	-110.7595367431641	1136.50439453125	-882.071960449219	-64.33676147460939	1095.225341796875	-925.9434814453127	-43.01544952392579	1143.183349609375	-826.8286743164065	-321.3030090332032	1446.496948242188	-638.2236328125001	-307.1986389160157	1248.751586914063	-525.1250000000001	-262.7798461914063	1232.99658203125	-540.1045532226564	-281.5315856933594	1184.594360351563	-507.8747863769532	-245.0376281738282	1121.611328125	-505.4888305664064	-293.2855834960938	1073.064819335938	-558.3502807617189	-89.49266052246095	1146.048583984375	-730.3828735351564	-66.9107131958008	1087.657104492188	-685.0189208984376	-11.5550708770752	1136.92041015625	-776.099792480469	-281.2113342285157	994.435729980469	-947.4223632812502	-260.8556213378907	994.1941528320315	-695.3405761718751	-428.7190856933595	1062.287719726563	-811.656188964844	-437.1206665039064	1031.32275390625	-839.2759399414065	-432.0136108398439	1031.189575195313	-782.0859985351565	-326.4903869628907	754.1531982421876	-1030.203369140625	-293.5726928710938	676.7838745117189	-1036.605712890625	-247.1630096435547	681.9984741210939	-1019.294921875	-318.4114990234376	622.2995605468751	-1030.336669921875	-318.8868103027344	514.0598754882814	-1027.404663085938	-276.1528320312501	489.7455139160157	-904.064880371094	-270.1024780273438	387.8564758300782	-1001.786804199219	-333.4136657714844	356.4216613769532	-1052.5615234375	-293.1212768554688	345.1511840820313	-1033.67578125	-304.5144348144532	264.4607238769532	-1009.250061035156	-391.246795654297	132.5987396240235	-1034.471069335938	-362.6897888183594	138.8993072509766	-953.1870117187502	-450.3434143066407	103.1716537475586	-995.2080688476565	-249.6467895507813	53.69395828247072	-961.8793945312502	-243.2495422363282	57.62609481811525	-1010.614135742188	-281.3747863769532	45.05224990844727	-1062.873657226563	-325.9777221679688	788.6817626953127	-637.1080932617189	-288.5186157226563	735.3726196289064	-643.9819946289064	-257.4066467285157	741.6687011718751	-655.5002441406251	-317.9441223144532	655.8524780273439	-659.6213378906251	-337.6239624023438	503.6810913085939	-698.9801025390626	-302.6194763183594	504.1456909179689	-824.1944580078127	-293.8940429687501	359.7100219726563	-774.5788574218752	-345.7699890136719	279.9533691406251	-721.1828002929689	-309.3618164062501	275.7942199707032	-753.7246093750001	-322.2266845703126	234.1643829345704	-792.8540649414065	-393.2122497558595	114.4704208374024	-765.3715209960939	-365.7402343750001	142.6942749023438	-843.4614868164065	-450.6105346679689	99.09582519531253	-822.987731933594	-246.2045593261719	58.3026466369629	-835.7476806640627	-246.3817749023438	54.63062667846681	-793.4484863281252	-284.0535583496094	33.72771072387696	-741.4813842773439	-370.0159912109376	1639.132690429688	-703.9619140625001	
